<svg width="22" height="22" viewBox="0 0 22 22" fill="none" xmlns="http://www.w3.org/2000/svg">
<path d="M5.34369 16.657L3.92969 18.071M5.34369 5.34299L3.92969 3.92899M16.6562 5.34299L18.0702 3.92899M16.6562 16.657L18.0702 18.071M3 11H1M11 3V1M19 11H21M11 19V21M13.8277 13.828C14.2097 13.459 14.5144 13.0176 14.7241 12.5296C14.9337 12.0416 15.0441 11.5167 15.0487 10.9856C15.0533 10.4545 14.9521 9.92776 14.751 9.43617C14.5498 8.94459 14.2528 8.49798 13.8773 8.12241C13.5017 7.74684 13.0551 7.44983 12.5635 7.2487C12.0719 7.04758 11.5452 6.94637 11.0141 6.95099C10.483 6.9556 9.95807 7.06595 9.47006 7.27558C8.98204 7.48522 8.54066 7.78995 8.17168 8.17199C7.44304 8.9264 7.03987 9.93681 7.04898 10.9856C7.05809 12.0344 7.47877 13.0376 8.2204 13.7793C8.96203 14.5209 9.96528 14.9416 11.0141 14.9507C12.0629 14.9598 13.0733 14.5566 13.8277 13.828Z" stroke="#111111" stroke-width="2" stroke-linecap="round" stroke-linejoin="round"/>
</svg>
