<svg width="20" height="22" viewBox="0 0 20 22" fill="none" xmlns="http://www.w3.org/2000/svg">
<path d="M7.66016 3L9.66016 4L11.6602 3M9.66016 1V7.5L12.6602 9.22M15.5879 5.26801L15.7219 7.50001L17.5879 8.73201M18.3204 6L12.6914 9.25L12.7014 12.708M17.5879 13.268L15.7219 14.5L15.5879 16.732M18.3202 16L12.6912 12.75L9.70117 14.488M11.6602 19L9.66016 18L7.66016 19M9.66016 21V14.5L6.66016 12.78M3.73242 16.732L3.59842 14.5L1.73242 13.268M1 16L6.629 12.75L6.619 9.29199M1.73242 8.73201L3.59842 7.50001L3.73242 5.26801M1 6L6.629 9.25L9.619 7.512" stroke="#111111" stroke-width="2" stroke-linecap="round" stroke-linejoin="round"/>
</svg>
