<svg width="20" height="22" viewBox="0 0 20 22" fill="none" xmlns="http://www.w3.org/2000/svg">
<path d="M8 3L10 4L12 3M10 1V7.5L13 9.22M15.9277 5.26801L16.0617 7.50001L17.9277 8.73201M18.6602 6L13.0312 9.25L13.0413 12.708M17.9277 13.268L16.0617 14.5L15.9277 16.732M18.66 16L13.031 12.75L10.041 14.488M12 19L10 18L8 19M10 21V14.5L7 12.78M4.07227 16.732L3.93827 14.5L2.07227 13.268M1.33984 16L6.96884 12.75L6.95884 9.29199M2.07227 8.73201L3.93827 7.50001L4.07227 5.26801M1.33984 6L6.96884 9.25L9.95884 7.512" stroke="#111111" stroke-width="2" stroke-linecap="round" stroke-linejoin="round"/>
</svg>
