<svg width="32" height="32" viewBox="0 0 32 32" fill="none" xmlns="http://www.w3.org/2000/svg">
<path d="M24.8829 21.9058L24.2587 21.49C24.125 21.6906 24.0959 21.9433 24.1806 22.1691L24.8829 21.9058ZM21.9085 24.8813L22.1718 24.179C21.9459 24.0944 21.6931 24.1235 21.4924 24.2573L21.9085 24.8813ZM26.668 26.6661L26.4046 27.3684C26.68 27.4716 26.9904 27.4044 27.1983 27.1964C27.4063 26.9885 27.4735 26.6782 27.3702 26.4028L26.668 26.6661ZM25.9156 16.0002C25.9156 18.0317 25.3055 19.9184 24.2587 21.49L25.5071 22.3215C26.7129 20.5114 27.4156 18.3367 27.4156 16.0002H25.9156ZM15.9994 6.08398C21.476 6.08398 25.9156 10.5236 25.9156 16.0002H27.4156C27.4156 9.69518 22.3044 4.58398 15.9994 4.58398V6.08398ZM6.08325 16.0002C6.08325 10.5236 10.5229 6.08398 15.9994 6.08398V4.58398C9.69445 4.58398 4.58325 9.69518 4.58325 16.0002H6.08325ZM15.9994 25.9163C10.5229 25.9163 6.08325 21.4767 6.08325 16.0002H4.58325C4.58325 22.3051 9.69445 27.4163 15.9994 27.4163V25.9163ZM21.4924 24.2573C19.9203 25.3054 18.0323 25.9163 15.9994 25.9163V27.4163C18.3375 27.4163 20.5136 26.7126 22.3245 25.5053L21.4924 24.2573ZM21.6451 25.5835L26.4046 27.3684L26.9313 25.9639L22.1718 24.179L21.6451 25.5835ZM27.3702 26.4028L25.5851 21.6424L24.1806 22.1691L25.9657 26.9295L27.3702 26.4028Z" fill="#111111"/>
<circle cx="10.6666" cy="15.9993" r="1.33333" fill="#111111"/>
<circle cx="16.0001" cy="15.9993" r="1.33333" fill="#111111"/>
<ellipse cx="21.3333" cy="15.9993" rx="1.33333" ry="1.33333" fill="#111111"/>
<circle cx="22.5" cy="7.5" r="5.5" fill="#FF3333"/>
<path d="M24.3349 5.27273V10H23.6793L21.2765 6.53303H21.2326V10H20.5194V5.27273H21.1795L23.5847 8.74432H23.6286V5.27273H24.3349Z" fill="white"/>
</svg>
