<svg width="23" height="22" viewBox="0 0 23 22" fill="none" xmlns="http://www.w3.org/2000/svg">
<path d="M5.84369 16.657L4.42969 18.071M5.84369 5.34299L4.42969 3.92899M17.1562 5.34299L18.5702 3.92899M17.1562 16.657L18.5702 18.071M3.5 11H1.5M11.5 3V1M19.5 11H21.5M11.5 19V21M14.3277 13.828C14.7097 13.459 15.0144 13.0176 15.2241 12.5296C15.4337 12.0416 15.5441 11.5167 15.5487 10.9856C15.5533 10.4545 15.4521 9.92776 15.251 9.43617C15.0498 8.94459 14.7528 8.49798 14.3773 8.12241C14.0017 7.74684 13.5551 7.44983 13.0635 7.2487C12.5719 7.04758 12.0452 6.94637 11.5141 6.95099C10.983 6.9556 10.4581 7.06595 9.97006 7.27558C9.48204 7.48522 9.04066 7.78995 8.67168 8.17199C7.94304 8.9264 7.53987 9.93681 7.54898 10.9856C7.55809 12.0344 7.97877 13.0376 8.7204 13.7793C9.46203 14.5209 10.4653 14.9416 11.5141 14.9507C12.5629 14.9598 13.5733 14.5566 14.3277 13.828Z" stroke="#111111" stroke-width="2" stroke-linecap="round" stroke-linejoin="round"/>
</svg>
