<svg width="20" height="18" viewBox="0 0 20 18" fill="none" xmlns="http://www.w3.org/2000/svg">
<path d="M16.364 16.3639C17.6227 15.1052 18.4798 13.5016 18.8271 11.7558C19.1743 10.0099 18.9961 8.20035 18.3149 6.55582C17.6337 4.9113 16.4802 3.50569 15.0001 2.51677C13.5201 1.52784 11.78 1 10 1C8.21998 1 6.47992 1.52784 4.99988 2.51677C3.51984 3.50569 2.36629 4.9113 1.6851 6.55582C1.00391 8.20035 0.82567 10.0099 1.17293 11.7558C1.52019 13.5016 2.37734 15.1052 3.636 16.3639M13.536 13.5351C14.2351 12.8358 14.7112 11.9448 14.904 10.975C15.0968 10.0051 14.9978 8.99983 14.6193 8.08628C14.2408 7.17272 13.5999 6.39191 12.7777 5.84256C11.9555 5.29321 10.9889 5 10 5C9.01115 5 8.04451 5.29321 7.22229 5.84256C6.40007 6.39191 5.75921 7.17272 5.38073 8.08628C5.00225 8.99983 4.90316 10.0051 5.09598 10.975C5.2888 11.9448 5.76487 12.8358 6.464 13.5351M9 10C9 10.2652 9.10536 10.5196 9.29289 10.7071C9.48043 10.8946 9.73478 11 10 11C10.2652 11 10.5196 10.8946 10.7071 10.7071C10.8946 10.5196 11 10.2652 11 10C11 9.73478 10.8946 9.48043 10.7071 9.29289C10.5196 9.10536 10.2652 9 10 9C9.73478 9 9.48043 9.10536 9.29289 9.29289C9.10536 9.48043 9 9.73478 9 10Z" stroke="black" stroke-width="2" stroke-linecap="round" stroke-linejoin="round"/>
</svg>
