<svg width="24" height="24" viewBox="0 0 24 24" fill="none" xmlns="http://www.w3.org/2000/svg">
<path d="M12 4L8.8 7.2L10.4 8.8L13.6 5.6C14.92 4.28 17.08 4.28 18.4 5.6C19.72 6.92 19.72 9.08 18.4 10.4L15.2 13.6L16.8 15.2L20 12C22.208 9.792 22.208 6.208 20 4C17.792 1.792 14.208 1.792 12 4ZM13.6 15.2L10.4 18.4C9.08 19.72 6.92 19.72 5.6 18.4C4.28 17.08 4.28 14.92 5.6 13.6L8.8 10.4L7.2 8.8L4 12C1.792 14.208 1.792 17.792 4 20C6.208 22.208 9.792 22.208 12 20L15.2 16.8L13.6 15.2ZM8 14.4L14.4 8L16 9.6L9.6 16L8 14.4Z" fill="#111111"/>
</svg>
