<svg width="152" height="21" viewBox="0 0 152 21" fill="none" xmlns="http://www.w3.org/2000/svg">
<g clip-path="url(#clip0_3199_27684)">
<path d="M91.1992 2.80431C91.1992 1.93579 91.4606 1.26551 91.9831 0.793489C92.5244 0.302583 93.2148 0.057129 94.0546 0.057129C94.9319 0.057129 95.6317 0.302583 96.1542 0.793489C96.6767 1.26551 96.938 1.93579 96.938 2.80431V14.8692C96.938 15.228 97.0314 15.4829 97.218 15.6339C97.4045 15.7661 97.7125 15.7094 98.1418 15.464C99.075 14.9164 99.9054 14.4822 100.633 14.1612C101.361 13.8213 102.164 13.6514 103.041 13.6514C104.254 13.6514 105.168 13.9724 105.784 14.6143C106.4 15.2563 106.708 16.0965 106.708 17.1349C106.708 18.2489 106.372 19.108 105.7 19.7122C105.047 20.3164 103.993 20.6185 102.537 20.6185H96.7701C95.5383 20.6185 94.5119 20.4769 93.6907 20.1937C92.8695 19.8916 92.2444 19.3535 91.8151 18.5793C91.4046 17.8052 91.1992 16.6818 91.1992 15.2091V2.80431ZM110.76 20.7318C109.901 20.7318 109.201 20.4674 108.66 19.9388C108.119 19.4101 107.848 18.7398 107.848 17.9279V2.94592C107.848 2.11515 108.109 1.41656 108.632 0.850129C109.173 0.283703 109.882 0.000488281 110.76 0.000488281C111.693 0.000488281 112.421 0.283703 112.943 0.850129C113.484 1.39768 113.755 2.0774 113.755 2.88928V17.9279C113.755 18.7398 113.466 19.4101 112.887 19.9388C112.327 20.4674 111.618 20.7318 110.76 20.7318ZM118.686 20.6751C117.753 20.6751 117.044 20.3825 116.559 19.7971C116.073 19.2118 115.831 18.4283 115.831 17.4465V4.16374C115.831 3.18193 116.008 2.38894 116.363 1.78473C116.736 1.16166 117.212 0.708522 117.79 0.42531C118.388 0.142095 119.032 0.000488281 119.722 0.000488281C120.748 0.000488281 121.616 0.274261 122.326 0.821809C123.035 1.36935 123.585 2.3323 123.977 3.7106L127.001 14.1612H127.448V3.28577C127.448 2.28508 127.7 1.50152 128.204 0.935096C128.708 0.349784 129.427 0.057129 130.36 0.057129C131.33 0.057129 132.049 0.349784 132.515 0.935096C133.001 1.50152 133.243 2.28508 133.243 3.28577V16.0871C133.243 17.6731 132.898 18.8437 132.208 19.5989C131.517 20.3541 130.546 20.7318 129.296 20.7318C128.027 20.7318 127.038 20.3919 126.329 19.7122C125.619 19.0325 125.078 18.0318 124.705 16.7101L122.717 9.82802C122.68 9.63921 122.605 9.46928 122.494 9.31824C122.4 9.14831 122.27 9.06334 122.102 9.06334C121.896 9.06334 121.756 9.14831 121.682 9.31824C121.607 9.46928 121.57 9.63921 121.57 9.82802V17.4465C121.57 18.4283 121.327 19.2118 120.842 19.7971C120.357 20.3825 119.638 20.6751 118.686 20.6751ZM141.237 7.90217L145.436 1.89802C146.183 0.821809 146.994 0.217618 147.872 0.0854504C148.749 -0.0655956 149.542 0.142095 150.251 0.708522C150.718 1.06726 151.026 1.54873 151.175 2.15292C151.324 2.75711 151.277 3.39906 151.035 4.07877C150.792 4.75848 150.307 5.40043 149.579 6.00462L144.904 9.82802V10.4228C145.501 10.4228 146.201 10.4983 147.004 10.6493C147.806 10.8004 148.534 11.1403 149.187 11.6689C149.71 12.0654 150.158 12.5186 150.531 13.0283C150.923 13.5381 151.231 14.1707 151.455 14.9259C151.679 15.6622 151.791 16.5968 151.791 17.7297C151.791 18.6548 151.539 19.4007 151.035 19.9671C150.55 20.5146 149.822 20.7884 148.851 20.7884C147.881 20.7884 147.134 20.5146 146.612 19.9671C146.108 19.4007 145.856 18.6548 145.856 17.7297C145.856 16.6912 145.688 15.8699 145.352 15.2657C145.035 14.6427 144.606 14.1895 144.064 13.9063C143.523 13.6231 142.935 13.4815 142.301 13.4815H140.929V17.9279C140.929 18.7398 140.649 19.4101 140.089 19.9388C139.548 20.4674 138.848 20.7318 137.99 20.7318C137.131 20.7318 136.422 20.4674 135.862 19.9388C135.321 19.4101 135.05 18.7398 135.05 17.9279V2.94592C135.05 2.11515 135.321 1.41656 135.862 0.850129C136.403 0.283703 137.112 0.000488281 137.99 0.000488281C138.923 0.000488281 139.641 0.283703 140.145 0.850129C140.668 1.39768 140.929 2.0774 140.929 2.88928V7.84553L141.237 7.90217Z" fill="black"/>
<path fill-rule="evenodd" clip-rule="evenodd" d="M80.0321 11.8325L80.6325 18.7324C80.7287 19.8385 79.8384 20.7884 78.7055 20.7884C77.5153 20.7884 76.6076 19.7454 76.7955 18.594L78.0559 10.8767C78.0577 10.8566 78.0601 10.8365 78.0633 10.8163C79.5637 1.56679 86.3356 -0.241369 90.432 0.0248457C90.9882 0.061 91.3068 0.630031 91.0833 1.13053C88.2565 7.46371 85.0046 10.2903 82.3202 11.3286C81.8955 11.4929 81.4861 11.6102 81.0957 11.6885C81.0747 11.6954 81.0535 11.7014 81.0314 11.7064C80.7294 11.7762 80.3945 11.8211 80.0321 11.8325ZM79.4552 5.03442C79.3826 4.92227 79.3089 4.81244 79.2339 4.70481C76.471 0.738745 72.1288 -0.161724 69.1791 0.0257078C68.6227 0.061061 68.303 0.629841 68.5265 1.13035C71.2146 7.15289 74.2872 10.0045 76.8904 11.1627C77.0295 11.2246 77.1675 11.2817 77.3038 11.3342C77.4691 10.1153 77.7233 9.01903 78.0496 8.03442C77.8652 7.63467 77.3945 6.97239 76.6201 6.22969C75.7768 5.42081 74.5971 4.53984 73.1003 3.8275C72.9373 3.74992 72.8693 3.55762 72.9485 3.39792C73.0277 3.23826 73.2241 3.17167 73.387 3.24922C74.952 3.99404 76.189 4.91663 77.0792 5.7703C77.6257 6.29458 78.0511 6.80204 78.34 7.23433C78.6628 6.41891 79.0383 5.68815 79.4552 5.03442Z" fill="#3BB873"/>
<path d="M-0.000488281 2.88595C-0.000488281 2.01843 0.260792 1.34893 0.783351 0.877445C1.32457 0.387104 2.0151 0.141933 2.85492 0.141933C3.73209 0.141933 4.43194 0.387104 4.95449 0.877445C5.47705 1.34893 5.73833 2.01843 5.73833 2.88595V14.937C5.73833 15.2954 5.83165 15.55 6.01827 15.7008C6.2049 15.8329 6.51283 15.7763 6.94208 15.5311C7.87523 14.9842 8.70572 14.5504 9.43357 14.2298C10.1614 13.8904 10.9639 13.7206 11.8411 13.7206C13.0542 13.7206 13.9686 14.0412 14.5845 14.6824C15.2004 15.3236 15.5083 16.1629 15.5083 17.2002C15.5083 18.3129 15.1724 19.1709 14.5005 19.7744C13.8473 20.378 12.7929 20.6797 11.3372 20.6797H5.57037C4.33862 20.6797 3.31217 20.5382 2.491 20.2554C1.66983 19.9536 1.04463 19.4161 0.615385 18.6429C0.204804 17.8697 -0.000488281 16.7475 -0.000488281 15.2765V2.88595ZM22.9323 20.6797C22.0179 20.6797 21.1406 20.5948 20.3008 20.4251C19.4796 20.2554 18.7518 19.9347 18.1173 19.4633C17.5014 18.9729 17.0068 18.2751 16.6336 17.3699C16.279 16.4458 16.1017 15.2388 16.1017 13.7489C16.1017 12.4099 16.279 11.2595 16.6336 10.2976C16.9881 9.33583 17.4081 8.57204 17.8933 8.00625C18.3972 7.44048 18.8544 7.09156 19.265 6.95957L19.125 6.42208H18.6491C17.7907 6.42208 17.1095 6.14862 16.6056 5.6017C16.1203 5.03591 15.8684 4.27213 15.8497 3.31028C15.8311 2.36731 16.0737 1.61296 16.5776 1.04718C17.1001 0.481401 17.7907 0.198512 18.6491 0.198512H28.6991C30.6961 0.198512 31.6945 1.14147 31.6945 3.02741C31.6945 3.87607 31.4519 4.555 30.9666 5.06421C30.4813 5.5734 29.7255 5.82802 28.6991 5.82802H22.9043C22.2138 5.82802 21.8685 6.2335 21.8685 7.04443V9.16611C22.8017 8.95865 23.7721 8.71348 24.7799 8.43058C25.8063 8.14769 26.7769 8.00625 27.6913 8.00625C28.5685 8.00625 29.2216 8.20427 29.6509 8.60032C30.0988 8.97752 30.3227 9.49614 30.3227 10.1562C30.3227 10.8351 30.0988 11.3726 29.6509 11.7687C29.2216 12.1459 28.5685 12.3439 27.6913 12.3627C26.7769 12.3816 25.8063 12.2496 24.7799 11.9667C23.7535 11.6838 22.7737 11.4387 21.8405 11.2312V14.937C21.8405 15.2954 21.9339 15.55 22.1204 15.7008C22.3258 15.8329 22.6429 15.7763 23.0722 15.5311C24.0055 14.9842 24.9199 14.5504 25.8157 14.2298C26.7115 13.8904 27.5887 13.7206 28.4471 13.7206C29.6603 13.7206 30.5747 14.0412 31.1906 14.6824C31.825 15.3236 32.1424 16.1629 32.1424 17.2002C32.1424 18.3129 31.8064 19.1709 31.1346 19.7744C30.4813 20.378 29.4175 20.6797 27.9432 20.6797H22.9323ZM35.5649 20.7363C34.3146 20.5477 33.5027 19.9725 33.1294 19.0106C32.7561 18.03 32.8309 16.7947 33.3533 15.3048L37.0486 4.69646C37.3845 3.71578 37.767 2.87653 38.1963 2.17874C38.6443 1.48094 39.1947 0.943453 39.848 0.566265C40.5199 0.189081 41.3503 0.000488281 42.3395 0.000488281C43.8326 0.000488281 44.9524 0.415394 45.6988 1.2452C46.4641 2.07501 47.0985 3.22543 47.6024 4.69646L51.2697 15.3048C51.7921 16.7947 51.8855 18.03 51.5496 19.0106C51.2323 19.9725 50.4392 20.5477 49.1701 20.7363C48.1437 20.8683 47.2479 20.7457 46.4826 20.3685C45.7362 19.9913 45.2883 19.3784 45.1389 18.5297C45.0269 17.964 45.0084 17.4925 45.0829 17.1153C45.1763 16.7381 45.2603 16.4363 45.3349 16.21C45.3909 16.0215 45.3909 15.8423 45.3349 15.6725C45.2975 15.484 45.1575 15.3897 44.915 15.3897H39.708C39.4655 15.3897 39.3161 15.484 39.2601 15.6725C39.2227 15.8423 39.2415 16.0215 39.3161 16.21C39.3907 16.4363 39.4655 16.7381 39.5401 17.1153C39.6147 17.4925 39.6055 17.964 39.5121 18.5297C39.3627 19.3784 38.9242 19.9913 38.1963 20.3685C37.4685 20.7457 36.5913 20.8683 35.5649 20.7363ZM44.3831 11.4292L42.9274 6.81812C42.89 6.62953 42.8248 6.48809 42.7314 6.39378C42.6568 6.28063 42.526 6.22405 42.3395 6.22405C42.1529 6.22405 42.013 6.28063 41.9196 6.39378C41.845 6.48809 41.7796 6.62953 41.7236 6.81812L40.2959 11.4292H44.3831ZM56.1122 20.7363C55.1978 20.7363 54.47 20.4817 53.9287 19.9725C53.4062 19.4633 53.1448 18.7183 53.1448 17.7376V13.7489C53.1448 11.7498 53.4434 10.2316 54.0407 9.19439C54.6379 8.15714 55.3938 7.41218 56.3082 6.95957L56.1682 6.42208H55.6923C54.8339 6.42208 54.1526 6.14862 53.6487 5.6017C53.1634 5.03591 52.9115 4.27213 52.8929 3.31028C52.8743 2.36731 53.1168 1.61296 53.6207 1.04718C54.1432 0.481401 54.8339 0.198512 55.6923 0.198512H65.4903C67.4873 0.198512 68.4857 1.14147 68.4857 3.02741C68.4857 3.87607 68.2431 4.555 67.7578 5.06421C67.2725 5.5734 66.5167 5.82802 65.4903 5.82802H60.0314C59.341 5.82802 58.9956 6.2335 58.9956 7.04443V9.08123C59.8729 8.83606 60.7873 8.55319 61.7391 8.23257C62.6909 7.91195 63.6053 7.75166 64.4825 7.75166C65.4157 7.75166 66.1342 7.9874 66.6381 8.45888C67.1606 8.91149 67.4219 9.6093 67.4219 10.5523C67.4219 11.4764 67.1606 12.1742 66.6381 12.6456C66.1342 13.0983 65.4157 13.334 64.4825 13.3529C63.6053 13.3717 62.6815 13.2303 61.7111 12.9285C60.7593 12.6079 59.8449 12.325 58.9676 12.0799L58.9396 17.7376C58.9396 18.7183 58.6783 19.4633 58.1558 19.9725C57.6519 20.4817 56.9706 20.7363 56.1122 20.7363Z" fill="black"/>
</g>
<defs>
<clipPath id="clip0_3199_27684">
<rect width="152" height="20.9957" fill="white"/>
</clipPath>
</defs>
</svg>
