<svg width="151" height="22" viewBox="0 0 151 22" fill="none" xmlns="http://www.w3.org/2000/svg">
<path d="M0.896 3.332C0.896 2.47333 1.15733 1.81067 1.68 1.344C2.22133 0.858666 2.912 0.615999 3.752 0.615999C4.62933 0.615999 5.32933 0.858666 5.852 1.344C6.37467 1.81067 6.636 2.47333 6.636 3.332V15.26C6.636 15.6147 6.72933 15.8667 6.916 16.016C7.10267 16.1467 7.41067 16.0907 7.84 15.848C8.77333 15.3067 9.604 14.8773 10.332 14.56C11.06 14.224 11.8627 14.056 12.74 14.056C13.9533 14.056 14.868 14.3733 15.484 15.008C16.1 15.6427 16.408 16.4733 16.408 17.5C16.408 18.6013 16.072 19.4507 15.4 20.048C14.7467 20.6453 13.692 20.944 12.236 20.944H6.468C5.236 20.944 4.20933 20.804 3.388 20.524C2.56667 20.2253 1.94133 19.6933 1.512 18.928C1.10133 18.1627 0.896 17.052 0.896 15.596V3.332ZM23.8335 20.944C22.9188 20.944 22.0415 20.86 21.2015 20.692C20.3801 20.524 19.6521 20.2067 19.0175 19.74C18.4015 19.2547 17.9068 18.564 17.5335 17.668C17.1788 16.7533 17.0015 15.5587 17.0015 14.084C17.0015 12.7587 17.1788 11.62 17.5335 10.668C17.8881 9.716 18.3081 8.96 18.7935 8.4C19.2975 7.84 19.7548 7.49467 20.1655 7.364L20.0255 6.832H19.5495C18.6908 6.832 18.0095 6.56133 17.5055 6.02C17.0201 5.46 16.7681 4.704 16.7495 3.752C16.7308 2.81867 16.9735 2.072 17.4775 1.512C18.0001 0.951999 18.6908 0.672 19.5495 0.672H29.6015C31.5988 0.672 32.5975 1.60533 32.5975 3.472C32.5975 4.312 32.3548 4.984 31.8695 5.488C31.3841 5.992 30.6281 6.244 29.6015 6.244H23.8055C23.1148 6.244 22.7695 6.64533 22.7695 7.448V9.548C23.7028 9.34267 24.6735 9.1 25.6815 8.82C26.7081 8.54 27.6788 8.4 28.5935 8.4C29.4708 8.4 30.1241 8.596 30.5535 8.988C31.0015 9.36133 31.2255 9.87467 31.2255 10.528C31.2255 11.2 31.0015 11.732 30.5535 12.124C30.1241 12.4973 29.4708 12.6933 28.5935 12.712C27.6788 12.7307 26.7081 12.6 25.6815 12.32C24.6548 12.04 23.6748 11.7973 22.7415 11.592V15.26C22.7415 15.6147 22.8348 15.8667 23.0215 16.016C23.2268 16.1467 23.5441 16.0907 23.9735 15.848C24.9068 15.3067 25.8215 14.8773 26.7175 14.56C27.6135 14.224 28.4908 14.056 29.3495 14.056C30.5628 14.056 31.4775 14.3733 32.0935 15.008C32.7281 15.6427 33.0455 16.4733 33.0455 17.5C33.0455 18.6013 32.7095 19.4507 32.0375 20.048C31.3841 20.6453 30.3201 20.944 28.8455 20.944H23.8335ZM36.4687 21C35.218 20.8133 34.406 20.244 34.0327 19.292C33.6594 18.3213 33.734 17.0987 34.2567 15.624L37.9527 5.124C38.2887 4.15333 38.6714 3.32267 39.1007 2.632C39.5487 1.94133 40.0994 1.40933 40.7527 1.036C41.4247 0.662665 42.2554 0.475999 43.2447 0.475999C44.738 0.475999 45.858 0.886666 46.6047 1.708C47.37 2.52933 48.0047 3.668 48.5087 5.124L52.1767 15.624C52.6994 17.0987 52.7927 18.3213 52.4567 19.292C52.1394 20.244 51.346 20.8133 50.0767 21C49.05 21.1307 48.154 21.0093 47.3887 20.636C46.642 20.2627 46.194 19.656 46.0447 18.816C45.9327 18.256 45.914 17.7893 45.9887 17.416C46.082 17.0427 46.166 16.744 46.2407 16.52C46.2967 16.3333 46.2967 16.156 46.2407 15.988C46.2034 15.8013 46.0634 15.708 45.8207 15.708H40.6127C40.37 15.708 40.2207 15.8013 40.1647 15.988C40.1274 16.156 40.146 16.3333 40.2207 16.52C40.2954 16.744 40.37 17.0427 40.4447 17.416C40.5194 17.7893 40.51 18.256 40.4167 18.816C40.2674 19.656 39.8287 20.2627 39.1007 20.636C38.3727 21.0093 37.4954 21.1307 36.4687 21ZM45.2887 11.788L43.8327 7.224C43.7954 7.03733 43.73 6.89733 43.6367 6.804C43.562 6.692 43.4314 6.636 43.2447 6.636C43.058 6.636 42.918 6.692 42.8247 6.804C42.75 6.89733 42.6847 7.03733 42.6287 7.224L41.2007 11.788H45.2887ZM57.0203 21C56.1056 21 55.3776 20.748 54.8363 20.244C54.3136 19.74 54.0523 19.0027 54.0523 18.032V14.084C54.0523 12.1053 54.3509 10.6027 54.9483 9.576C55.5456 8.54933 56.3016 7.812 57.2163 7.364L57.0763 6.832H56.6003C55.7416 6.832 55.0603 6.56133 54.5563 6.02C54.0709 5.46 53.8189 4.704 53.8003 3.752C53.7816 2.81867 54.0243 2.072 54.5283 1.512C55.0509 0.951999 55.7416 0.672 56.6003 0.672H66.4003C68.3976 0.672 69.3963 1.60533 69.3963 3.472C69.3963 4.312 69.1536 4.984 68.6683 5.488C68.1829 5.992 67.4269 6.244 66.4003 6.244H60.9403C60.2496 6.244 59.9043 6.64533 59.9043 7.448V9.464C60.7816 9.22133 61.6963 8.94133 62.6483 8.624C63.6003 8.30667 64.5149 8.148 65.3923 8.148C66.3256 8.148 67.0443 8.38133 67.5482 8.848C68.0709 9.296 68.3323 9.98667 68.3323 10.92C68.3323 11.8347 68.0709 12.5253 67.5482 12.992C67.0443 13.44 66.3256 13.6733 65.3923 13.692C64.5149 13.7107 63.5909 13.5707 62.6203 13.272C61.6683 12.9547 60.7536 12.6747 59.8763 12.432L59.8483 18.032C59.8483 19.0027 59.5869 19.74 59.0643 20.244C58.5603 20.748 57.8789 21 57.0203 21ZM70.9019 6.02C70.3606 4.86267 70.2392 3.82667 70.5379 2.912C70.8366 1.97867 71.4059 1.32533 72.2459 0.951999C73.1046 0.578665 73.9726 0.578665 74.8499 0.951999C75.7459 1.30667 76.3992 2.06267 76.8099 3.22C77.0152 3.79867 77.1646 4.47067 77.2579 5.236C77.3512 5.98267 77.4539 6.71067 77.5659 7.42C77.6966 8.11067 77.9019 8.68933 78.1819 9.156C78.4806 9.604 78.9379 9.828 79.5539 9.828C80.1699 9.828 80.6272 9.604 80.9259 9.156C81.2246 8.68933 81.4299 8.11067 81.5419 7.42C81.6726 6.71067 81.7752 5.98267 81.8499 5.236C81.9432 4.47067 82.0926 3.79867 82.2979 3.22C82.7272 2.06267 83.3806 1.30667 84.2579 0.951999C85.1352 0.578665 86.0032 0.578665 86.8619 0.951999C87.7019 1.32533 88.2712 1.97867 88.5699 2.912C88.8686 3.82667 88.7472 4.86267 88.2059 6.02C87.9259 6.61733 87.5526 7.18667 87.0859 7.728C86.6379 8.25067 86.1432 8.792 85.6019 9.352C85.0606 9.912 84.5192 10.5373 83.9779 11.228C83.4366 11.9 82.9419 12.6747 82.4939 13.552V18.34C82.4939 19.1053 82.2139 19.74 81.6539 20.244C81.0939 20.748 80.3939 21 79.5539 21C78.7326 21 78.0326 20.748 77.4539 20.244C76.8939 19.74 76.6139 19.1053 76.6139 18.34V13.552C76.1846 12.6747 75.6992 11.9 75.1579 11.228C74.6166 10.5373 74.0752 9.912 73.5339 9.352C72.9926 8.792 72.4886 8.25067 72.0219 7.728C71.5552 7.18667 71.1819 6.61733 70.9019 6.02ZM90.2554 3.332C90.2554 2.47333 90.5167 1.81067 91.0394 1.344C91.5807 0.858666 92.2714 0.615999 93.1114 0.615999C93.9887 0.615999 94.6887 0.858666 95.2114 1.344C95.734 1.81067 95.9954 2.47333 95.9954 3.332V15.26C95.9954 15.6147 96.0887 15.8667 96.2754 16.016C96.462 16.1467 96.77 16.0907 97.1994 15.848C98.1327 15.3067 98.9634 14.8773 99.6914 14.56C100.419 14.224 101.222 14.056 102.099 14.056C103.313 14.056 104.227 14.3733 104.843 15.008C105.459 15.6427 105.767 16.4733 105.767 17.5C105.767 18.6013 105.431 19.4507 104.759 20.048C104.106 20.6453 103.051 20.944 101.595 20.944H95.8274C94.5954 20.944 93.5687 20.804 92.7474 20.524C91.926 20.2253 91.3007 19.6933 90.8714 18.928C90.4607 18.1627 90.2554 17.052 90.2554 15.596V3.332ZM109.82 21.056C108.961 21.056 108.261 20.7947 107.72 20.272C107.178 19.7493 106.908 19.0867 106.908 18.284V3.472C106.908 2.65067 107.169 1.96 107.692 1.4C108.233 0.839999 108.942 0.559999 109.82 0.559999C110.753 0.559999 111.481 0.839999 112.004 1.4C112.545 1.94133 112.816 2.61333 112.816 3.416V18.284C112.816 19.0867 112.526 19.7493 111.948 20.272C111.388 20.7947 110.678 21.056 109.82 21.056ZM117.748 21C116.815 21 116.105 20.7107 115.62 20.132C115.135 19.5533 114.892 18.7787 114.892 17.808V4.676C114.892 3.70533 115.069 2.92133 115.424 2.324C115.797 1.708 116.273 1.26 116.852 0.979999C117.449 0.699999 118.093 0.559999 118.784 0.559999C119.811 0.559999 120.679 0.830666 121.388 1.372C122.097 1.91333 122.648 2.86533 123.04 4.228L126.064 14.56H126.512V3.808C126.512 2.81867 126.764 2.044 127.268 1.484C127.772 0.905332 128.491 0.615999 129.424 0.615999C130.395 0.615999 131.113 0.905332 131.58 1.484C132.065 2.044 132.308 2.81867 132.308 3.808V16.464C132.308 18.032 131.963 19.1893 131.272 19.936C130.581 20.6827 129.611 21.056 128.36 21.056C127.091 21.056 126.101 20.72 125.392 20.048C124.683 19.376 124.141 18.3867 123.768 17.08L121.78 10.276C121.743 10.0893 121.668 9.92133 121.556 9.772C121.463 9.604 121.332 9.52 121.164 9.52C120.959 9.52 120.819 9.604 120.744 9.772C120.669 9.92133 120.632 10.0893 120.632 10.276V17.808C120.632 18.7787 120.389 19.5533 119.904 20.132C119.419 20.7107 118.7 21 117.748 21ZM140.303 8.372L144.503 2.436C145.25 1.372 146.062 0.774666 146.939 0.643998C147.817 0.494666 148.61 0.699999 149.319 1.26C149.786 1.61467 150.094 2.09067 150.243 2.688C150.393 3.28533 150.346 3.92 150.103 4.592C149.861 5.264 149.375 5.89867 148.647 6.496L143.971 10.276V10.864C144.569 10.864 145.269 10.9387 146.071 11.088C146.874 11.2373 147.602 11.5733 148.255 12.096C148.778 12.488 149.226 12.936 149.599 13.44C149.991 13.944 150.299 14.5693 150.523 15.316C150.747 16.044 150.859 16.968 150.859 18.088C150.859 19.0027 150.607 19.74 150.103 20.3C149.618 20.8413 148.89 21.112 147.919 21.112C146.949 21.112 146.202 20.8413 145.679 20.3C145.175 19.74 144.923 19.0027 144.923 18.088C144.923 17.0613 144.755 16.2493 144.419 15.652C144.102 15.036 143.673 14.588 143.131 14.308C142.59 14.028 142.002 13.888 141.367 13.888H139.995V18.284C139.995 19.0867 139.715 19.7493 139.155 20.272C138.614 20.7947 137.914 21.056 137.055 21.056C136.197 21.056 135.487 20.7947 134.927 20.272C134.386 19.7493 134.115 19.0867 134.115 18.284V3.472C134.115 2.65067 134.386 1.96 134.927 1.4C135.469 0.839999 136.178 0.559999 137.055 0.559999C137.989 0.559999 138.707 0.839999 139.211 1.4C139.734 1.94133 139.995 2.61333 139.995 3.416V8.316L140.303 8.372Z" fill="#111111"/>
</svg>
