<svg width="99" height="19" viewBox="0 0 99 19" fill="none" xmlns="http://www.w3.org/2000/svg">
<path d="M4.32 15.696H8.604V19H0.4V0.884H4.32V15.696ZM14.3825 15.752H18.7225V19H10.4625V0.884H18.7225V4.076H14.3825V8.332H18.4425V11.412H14.3825V15.752ZM28.1858 0.604C30.5005 0.604 31.6578 1.836 31.6578 4.3V19H27.7378V12.924H24.9098V19H20.9898V4.3C20.9898 1.836 22.1472 0.604 24.4618 0.604H28.1858ZM24.9098 9.9H27.7378V3.824C27.7378 3.67467 27.6818 3.544 27.5698 3.432C27.4765 3.32 27.3552 3.264 27.2058 3.264H25.4418C25.2925 3.264 25.1618 3.32 25.0498 3.432C24.9565 3.544 24.9098 3.67467 24.9098 3.824V9.9ZM38.4997 11.888V19H34.5797V0.884H42.7557V4.272H38.4997V8.612H42.4757V11.888H38.4997ZM55.5523 0.884L51.6603 12.392V19H47.7403V12.392L43.8483 0.884H47.5443L49.7003 8.444L51.8563 0.884H55.5523ZM61.1403 15.696H65.4243V19H57.2203V0.884H61.1403V15.696ZM71.2028 0.884V19H67.2828V0.884H71.2028ZM84.5068 19H80.5868V3.964C80.5868 3.81467 80.5308 3.684 80.4188 3.572C80.3254 3.46 80.2041 3.404 80.0548 3.404H78.5428C78.3934 3.404 78.2628 3.46 78.1508 3.572C78.0574 3.684 78.0108 3.81467 78.0108 3.964V19H74.0908V4.3C74.0908 1.836 75.2481 0.604 77.5628 0.604H81.0348C83.3494 0.604 84.5068 1.836 84.5068 4.3V19ZM98.4184 0.884L95.3384 9.2L99.0064 19H95.0024L92.3144 11.832H91.0544V19H87.1344V0.884H91.0544V8.472H92.0064L94.8344 0.884H98.4184Z" fill="#111111"/>
</svg>
