<svg width="28" height="28" viewBox="0 0 28 28" fill="none" xmlns="http://www.w3.org/2000/svg">
<g id="&#235;&#130;&#152;&#234;&#176;&#128;&#234;&#184;&#176;">
<path id="Vector" d="M16.3333 9.33332V6.99999C16.3333 6.38115 16.0875 5.78766 15.6499 5.35007C15.2123 4.91249 14.6188 4.66666 14 4.66666H5.83333C5.21449 4.66666 4.621 4.91249 4.18342 5.35007C3.74583 5.78766 3.5 6.38115 3.5 6.99999V21C3.5 21.6188 3.74583 22.2123 4.18342 22.6499C4.621 23.0875 5.21449 23.3333 5.83333 23.3333H14C14.6188 23.3333 15.2123 23.0875 15.6499 22.6499C16.0875 22.2123 16.3333 21.6188 16.3333 21V18.6667M10.5 14H24.5M24.5 14L21 10.5M24.5 14L21 17.5" stroke="#767676" stroke-width="2" stroke-linecap="round" stroke-linejoin="round"/>
</g>
</svg>
