<svg width="20" height="20" viewBox="0 0 20 20" fill="none" xmlns="http://www.w3.org/2000/svg">
<path d="M15.552 13.6908L14.8584 13.2288C14.7099 13.4517 14.6776 13.7325 14.7717 13.9834L15.552 13.6908ZM13.6929 15.5505L13.9855 14.7702C13.7346 14.6761 13.4537 14.7084 13.2307 14.8571L13.6929 15.5505ZM16.6677 16.666L16.3751 17.4463C16.6811 17.5611 17.0259 17.4864 17.257 17.2553C17.488 17.0242 17.5627 16.6794 17.448 16.3734L16.6677 16.666ZM15.8329 9.99973C15.8329 11.1953 15.4741 12.3046 14.8584 13.2288L16.2455 14.1527C17.0378 12.9634 17.4995 11.5342 17.4995 9.99973H15.8329ZM9.99985 4.16671C13.2213 4.16671 15.8329 6.77824 15.8329 9.99973H17.4995C17.4995 5.85777 14.1418 2.50004 9.99985 2.50004V4.16671ZM4.16683 9.99973C4.16683 6.77824 6.77836 4.16671 9.99985 4.16671V2.50004C5.85789 2.50004 2.50016 5.85777 2.50016 9.99973H4.16683ZM9.99985 15.8328C6.77836 15.8328 4.16683 13.2212 4.16683 9.99973H2.50016C2.50016 14.1417 5.85789 17.4994 9.99985 17.4994V15.8328ZM13.2307 14.8571C12.3061 15.4735 11.1962 15.8328 9.99985 15.8328V17.4994C11.5353 17.4994 12.9653 17.0371 14.1552 16.2439L13.2307 14.8571ZM13.4003 16.3308L16.3751 17.4463L16.9603 15.8858L13.9855 14.7702L13.4003 16.3308ZM17.448 16.3734L16.3323 13.3982L14.7717 13.9834L15.8874 16.9586L17.448 16.3734Z" fill="#111111"/>
<circle cx="6.66683" cy="9.99996" r="0.833333" fill="#111111"/>
<circle cx="9.99984" cy="9.99996" r="0.833333" fill="#111111"/>
<circle cx="13.3333" cy="9.99996" r="0.833333" fill="#111111"/>
</svg>
