<svg width="1920" height="45" viewBox="0 0 1920 45" fill="none" xmlns="http://www.w3.org/2000/svg">
<g clip-path="url(#clip0_2849_45009)">
<rect width="1920" height="45" fill="url(#paint0_linear_2849_45009)"/>
<path fill-rule="evenodd" clip-rule="evenodd" d="M278.627 -8.1001L272.242 5.23893C270.876 8.15956 270.788 11.6469 272.374 14.4804C273.475 16.5292 275.368 18.2292 278.627 18.2292C281.886 18.2292 283.735 16.5292 284.836 14.4804C286.421 11.6469 286.333 8.15956 284.968 5.23893L278.627 -8.1001ZM298.619 15.0906L295.185 22.2396C294.807 23.0174 294.618 23.8719 294.634 24.7347C294.649 25.5975 294.868 26.4449 295.273 27.2091C295.573 27.8297 296.049 28.3501 296.644 28.7064C297.238 29.0626 297.925 29.2391 298.619 29.2143C299.312 29.2283 299.994 29.0472 300.587 28.6922C301.179 28.3372 301.658 27.8229 301.966 27.2091C302.364 26.4414 302.576 25.5923 302.583 24.7295C302.591 23.8667 302.395 23.014 302.01 22.2396L298.619 15.0906ZM310.774 3.2773L316.191 -8.1001L321.607 3.2773C322.213 4.50861 322.521 5.86296 322.506 7.23266C322.491 8.60236 322.153 9.94966 321.519 11.1674C321.005 12.125 320.238 12.9261 319.299 13.4848C318.361 14.0435 317.286 14.3387 316.191 14.3387C315.095 14.3387 314.021 14.0435 313.082 13.4848C312.143 12.9261 311.376 12.125 310.862 11.1674C310.229 9.94966 309.891 8.60236 309.876 7.23266C309.86 5.86296 310.168 4.50861 310.774 3.2773ZM286.024 33.835L282.898 40.4609C282.534 41.1637 282.348 41.9434 282.356 42.733C282.363 43.5226 282.564 44.2986 282.942 44.9944C283.215 45.5698 283.653 46.0536 284.2 46.3866C284.748 46.7195 285.382 46.8871 286.024 46.8688C286.664 46.8763 287.293 46.7043 287.839 46.3726C288.384 46.0409 288.824 45.5631 289.107 44.9944C289.473 44.2953 289.668 43.5205 289.676 42.7328C289.684 41.9452 289.504 41.1668 289.151 40.4609L286.024 33.835ZM310.509 40.5045L316.19 28.604L321.87 40.5045C322.498 41.7994 322.816 43.2198 322.801 44.6559C322.786 46.0919 322.437 47.5053 321.782 48.7869C320.769 50.5742 319.096 52.0999 316.19 52.0999C313.283 52.0999 311.61 50.5742 310.597 48.7869C309.942 47.5053 309.594 46.0919 309.579 44.6559C309.563 43.2198 309.882 41.7994 310.509 40.5045Z" fill="url(#paint1_linear_2849_45009)"/>
<g filter="url(#filter0_bi_2849_45009)">
<path fill-rule="evenodd" clip-rule="evenodd" d="M1744.05 1.27778C1744.05 1.81055 1744.03 2.33853 1743.99 2.86095C1746.21 1.02748 1749.05 -0.0740013 1752.16 -0.0740013C1759.25 -0.0740013 1765 5.67582 1765 12.7686C1765 19.6346 1759.61 25.2422 1752.83 25.5937V25.6111H1752.19C1752.18 25.6112 1752.17 25.6112 1752.16 25.6112C1752.15 25.6112 1752.13 25.6112 1752.12 25.6111H1703.49V25.5408C1697.03 24.8651 1692 19.4046 1692 12.7685C1692 6.11868 1697.05 0.649303 1703.53 -0.00787544C1704.19 -10.608 1713 -19 1723.77 -19C1734.97 -19 1744.05 -9.92133 1744.05 1.27778Z" fill="url(#paint2_linear_2849_45009)"/>
</g>
<g filter="url(#filter1_f_2849_45009)">
<ellipse cx="1684.5" cy="53.5" rx="31.5" ry="9.5" fill="#949494" fill-opacity="0.7"/>
</g>
<g filter="url(#filter2_bi_2849_45009)">
<path fill-rule="evenodd" clip-rule="evenodd" d="M1708 16C1708 16.7882 1707.97 17.5693 1707.91 18.3422C1711.19 15.6296 1715.41 14 1720 14C1730.49 14 1739 22.5066 1739 33C1739 43.158 1731.03 51.4541 1721 51.9741V52H1720H1650H1648V51.896C1638.45 50.8966 1631 42.8179 1631 33C1631 23.1618 1638.48 15.07 1648.06 14.0979C1649.04 -1.58442 1662.07 -14 1678 -14C1694.57 -14 1708 -0.568542 1708 16Z" fill="url(#paint3_linear_2849_45009)"/>
</g>
<g filter="url(#filter3_f_2849_45009)">
<ellipse cx="1620.12" cy="31.4113" rx="23.625" ry="7.09494" fill="#949494" fill-opacity="0.7"/>
</g>
<g filter="url(#filter4_bi_2849_45009)">
<path fill-rule="evenodd" clip-rule="evenodd" d="M1637.75 3.40506C1637.75 3.99373 1637.73 4.5771 1637.68 5.15434C1640.15 3.12847 1643.31 1.91139 1646.75 1.91139C1654.62 1.91139 1661 8.26442 1661 16.1013C1661 23.6876 1655.02 29.8835 1647.5 30.2718V30.2911H1646.75H1594.25H1592.75V30.2135C1585.59 29.4671 1580 23.4336 1580 16.1013C1580 8.75372 1585.61 2.71049 1592.79 1.9845C1593.53 -9.72761 1603.3 -19 1615.25 -19C1627.68 -19 1637.75 -8.96891 1637.75 3.40506Z" fill="url(#paint4_linear_2849_45009)"/>
</g>
<path fill-rule="evenodd" clip-rule="evenodd" d="M1600.49 39.6846C1600.8 39.8913 1601.16 40.001 1601.52 39.9999C1601.85 40.0022 1602.18 39.9162 1602.47 39.7503C1602.76 39.5844 1603 39.3444 1603.17 39.054L1624.2 4.16061C1624.47 3.71365 1624.56 3.17636 1624.44 2.66498C1624.32 2.1536 1624.02 1.70923 1623.58 1.428C1623.14 1.17107 1622.61 1.0987 1622.11 1.22575C1621.62 1.3528 1621.18 1.66963 1620.91 2.11115L1599.88 36.952C1599.74 37.1713 1599.64 37.4172 1599.6 37.6751C1599.55 37.933 1599.56 38.1975 1599.62 38.4527C1599.67 38.7079 1599.78 38.9486 1599.93 39.1603C1600.08 39.372 1600.27 39.5503 1600.49 39.6846ZM1586.46 40C1586.09 40.001 1585.73 39.8913 1585.43 39.6847C1585.21 39.5503 1585.02 39.372 1584.86 39.1603C1584.71 38.9486 1584.61 38.7079 1584.55 38.4527C1584.49 38.1975 1584.48 37.933 1584.53 37.6751C1584.57 37.4173 1584.67 37.1713 1584.81 36.952L1599.88 12.3585C1600.01 12.1336 1600.18 11.9382 1600.39 11.784C1600.6 11.6298 1600.83 11.52 1601.08 11.4611C1601.33 11.4022 1601.59 11.3955 1601.84 11.4413C1602.1 11.4872 1602.34 11.5846 1602.55 11.7279C1602.98 12.0091 1603.29 12.4535 1603.41 12.9649C1603.52 13.4762 1603.44 14.0135 1603.17 14.4605L1588.1 39.0541C1587.93 39.3444 1587.69 39.5844 1587.4 39.7503C1587.11 39.9162 1586.79 40.0022 1586.46 40ZM1617.67 39.9999C1617.3 40.001 1616.94 39.8912 1616.64 39.6846C1616.42 39.5503 1616.23 39.3719 1616.08 39.1602C1615.93 38.9485 1615.82 38.7078 1615.76 38.4526C1615.7 38.1974 1615.7 37.933 1615.74 37.6751C1615.79 37.4172 1615.88 37.1713 1616.02 36.952L1626.67 19.5053C1626.94 19.0622 1627.38 18.7476 1627.88 18.6296C1628.38 18.5116 1628.9 18.5996 1629.34 18.8747C1629.78 19.1559 1630.08 19.6003 1630.2 20.1117C1630.31 20.623 1630.23 21.1603 1629.96 21.6073L1619.31 39.054C1619.14 39.3409 1618.9 39.5781 1618.61 39.7435C1618.32 39.9089 1618 39.9971 1617.67 39.9999Z" fill="url(#paint5_linear_2849_45009)"/>
<path fill-rule="evenodd" clip-rule="evenodd" d="M1593.47 30.2911H1592.75V30.2135C1591.59 30.0924 1590.47 29.8323 1589.4 29.4502L1599.88 12.3585C1600.01 12.1336 1600.18 11.9382 1600.39 11.784C1600.6 11.6298 1600.83 11.52 1601.08 11.4611C1601.33 11.4022 1601.59 11.3955 1601.84 11.4413C1602.09 11.4872 1602.33 11.5846 1602.55 11.7279C1602.98 12.0091 1603.29 12.4535 1603.41 12.9649C1603.52 13.4762 1603.44 14.0135 1603.17 14.4605L1593.47 30.2911ZM1603.9 30.2911L1620.91 2.11115C1621.18 1.66963 1621.61 1.3528 1622.11 1.22575C1622.61 1.0987 1623.13 1.17107 1623.58 1.428C1624.01 1.70923 1624.32 2.1536 1624.44 2.66498C1624.55 3.17636 1624.47 3.71365 1624.2 4.16061L1608.45 30.2911H1603.9ZM1624.66 30.2911H1620.09L1626.67 19.5053C1626.94 19.0622 1627.38 18.7476 1627.88 18.6296C1628.38 18.5116 1628.91 18.5996 1629.34 18.8747C1629.78 19.1559 1630.08 19.6003 1630.2 20.1117C1630.32 20.623 1630.23 21.1603 1629.96 21.6073L1624.66 30.2911Z" fill="#E0E0E0"/>
</g>
<defs>
<filter id="filter0_bi_2849_45009" x="1685" y="-26" width="86.9998" height="58.6112" filterUnits="userSpaceOnUse" color-interpolation-filters="sRGB">
<feFlood flood-opacity="0" result="BackgroundImageFix"/>
<feGaussianBlur in="BackgroundImageFix" stdDeviation="3.5"/>
<feComposite in2="SourceAlpha" operator="in" result="effect1_backgroundBlur_2849_45009"/>
<feBlend mode="normal" in="SourceGraphic" in2="effect1_backgroundBlur_2849_45009" result="shape"/>
<feColorMatrix in="SourceAlpha" type="matrix" values="0 0 0 0 0 0 0 0 0 0 0 0 0 0 0 0 0 0 127 0" result="hardAlpha"/>
<feOffset dy="2"/>
<feGaussianBlur stdDeviation="4"/>
<feComposite in2="hardAlpha" operator="arithmetic" k2="-1" k3="1"/>
<feColorMatrix type="matrix" values="0 0 0 0 1 0 0 0 0 1 0 0 0 0 1 0 0 0 0.25 0"/>
<feBlend mode="normal" in2="shape" result="effect2_innerShadow_2849_45009"/>
</filter>
<filter id="filter1_f_2849_45009" x="1631" y="22" width="107" height="63" filterUnits="userSpaceOnUse" color-interpolation-filters="sRGB">
<feFlood flood-opacity="0" result="BackgroundImageFix"/>
<feBlend mode="normal" in="SourceGraphic" in2="BackgroundImageFix" result="shape"/>
<feGaussianBlur stdDeviation="11" result="effect1_foregroundBlur_2849_45009"/>
</filter>
<filter id="filter2_bi_2849_45009" x="1624" y="-21" width="122" height="80" filterUnits="userSpaceOnUse" color-interpolation-filters="sRGB">
<feFlood flood-opacity="0" result="BackgroundImageFix"/>
<feGaussianBlur in="BackgroundImageFix" stdDeviation="3.5"/>
<feComposite in2="SourceAlpha" operator="in" result="effect1_backgroundBlur_2849_45009"/>
<feBlend mode="normal" in="SourceGraphic" in2="effect1_backgroundBlur_2849_45009" result="shape"/>
<feColorMatrix in="SourceAlpha" type="matrix" values="0 0 0 0 0 0 0 0 0 0 0 0 0 0 0 0 0 0 127 0" result="hardAlpha"/>
<feOffset dy="2"/>
<feGaussianBlur stdDeviation="4"/>
<feComposite in2="hardAlpha" operator="arithmetic" k2="-1" k3="1"/>
<feColorMatrix type="matrix" values="0 0 0 0 1 0 0 0 0 1 0 0 0 0 1 0 0 0 0.25 0"/>
<feBlend mode="normal" in2="shape" result="effect2_innerShadow_2849_45009"/>
</filter>
<filter id="filter3_f_2849_45009" x="1580" y="7.81641" width="80.25" height="47.1898" filterUnits="userSpaceOnUse" color-interpolation-filters="sRGB">
<feFlood flood-opacity="0" result="BackgroundImageFix"/>
<feBlend mode="normal" in="SourceGraphic" in2="BackgroundImageFix" result="shape"/>
<feGaussianBlur stdDeviation="8.25" result="effect1_foregroundBlur_2849_45009"/>
</filter>
<filter id="filter4_bi_2849_45009" x="1574.75" y="-24.25" width="91.5" height="59.7911" filterUnits="userSpaceOnUse" color-interpolation-filters="sRGB">
<feFlood flood-opacity="0" result="BackgroundImageFix"/>
<feGaussianBlur in="BackgroundImageFix" stdDeviation="2.625"/>
<feComposite in2="SourceAlpha" operator="in" result="effect1_backgroundBlur_2849_45009"/>
<feBlend mode="normal" in="SourceGraphic" in2="effect1_backgroundBlur_2849_45009" result="shape"/>
<feColorMatrix in="SourceAlpha" type="matrix" values="0 0 0 0 0 0 0 0 0 0 0 0 0 0 0 0 0 0 127 0" result="hardAlpha"/>
<feOffset dy="1.5"/>
<feGaussianBlur stdDeviation="3"/>
<feComposite in2="hardAlpha" operator="arithmetic" k2="-1" k3="1"/>
<feColorMatrix type="matrix" values="0 0 0 0 1 0 0 0 0 1 0 0 0 0 1 0 0 0 0.25 0"/>
<feBlend mode="normal" in2="shape" result="effect2_innerShadow_2849_45009"/>
</filter>
<linearGradient id="paint0_linear_2849_45009" x1="1.20513e-07" y1="-46" x2="1920" y2="91" gradientUnits="userSpaceOnUse">
<stop stop-color="#DDE8F2"/>
<stop offset="0.7" stop-color="#4682B4"/>
<stop offset="1" stop-color="#6598C3"/>
</linearGradient>
<linearGradient id="paint1_linear_2849_45009" x1="301.301" y1="-30.8901" x2="297.001" y2="52.0999" gradientUnits="userSpaceOnUse">
<stop stop-color="#D7F0FF"/>
<stop offset="1" stop-color="#0072DC"/>
</linearGradient>
<linearGradient id="paint2_linear_2849_45009" x1="1729.85" y1="41.4955" x2="1757.23" y2="-18.9999" gradientUnits="userSpaceOnUse">
<stop stop-color="#DFDFDF"/>
<stop offset="1" stop-color="#92AABB" stop-opacity="0"/>
</linearGradient>
<linearGradient id="paint3_linear_2849_45009" x1="1687" y1="75.5" x2="1727.5" y2="-14" gradientUnits="userSpaceOnUse">
<stop stop-color="#DFDFDF"/>
<stop offset="1" stop-color="#92AABB" stop-opacity="0"/>
</linearGradient>
<linearGradient id="paint4_linear_2849_45009" x1="1622" y1="47.8418" x2="1652.16" y2="-19.0958" gradientUnits="userSpaceOnUse">
<stop stop-color="#DFDFDF"/>
<stop offset="1" stop-color="#92AABB" stop-opacity="0"/>
</linearGradient>
<linearGradient id="paint5_linear_2849_45009" x1="1591.03" y1="32.1405" x2="1628.45" y2="-5.06052" gradientUnits="userSpaceOnUse">
<stop stop-color="#68717E"/>
<stop offset="1" stop-color="#DAE3EC"/>
</linearGradient>
<clipPath id="clip0_2849_45009">
<rect width="1920" height="45" fill="white"/>
</clipPath>
</defs>
</svg>
