<svg width="1920" height="45" viewBox="0 0 1920 45" fill="none" xmlns="http://www.w3.org/2000/svg">
<g clip-path="url(#clip0_2849_45029)">
<rect width="1920" height="45" fill="url(#paint0_linear_2849_45029)"/>
<path fill-rule="evenodd" clip-rule="evenodd" d="M1618.94 33.3007C1618.94 32.4942 1618.28 31.8403 1617.47 31.8403C1616.67 31.8403 1616.01 32.4942 1616.01 33.3007L1616.01 35.7961L1614.25 34.0312C1613.68 33.4609 1612.75 33.4609 1612.18 34.0312C1611.61 34.6015 1611.61 35.5261 1612.18 36.0964L1613.95 37.8604L1611.45 37.8604C1610.65 37.8604 1609.99 38.5142 1609.99 39.3207C1609.99 40.1272 1610.65 40.781 1611.45 40.781H1613.95L1612.18 42.5449C1611.61 43.1152 1611.61 44.0399 1612.18 44.6102C1612.75 45.1805 1613.68 45.1805 1614.25 44.6102L1616.01 42.8453L1616.01 45.341C1616.01 46.1475 1616.67 46.8013 1617.47 46.8013C1618.28 46.8013 1618.94 46.1475 1618.94 45.341V42.8473L1620.7 44.6102C1621.27 45.1805 1622.19 45.1805 1622.76 44.6102C1623.33 44.0399 1623.33 43.1152 1622.76 42.5449L1621 40.781H1623.49C1624.3 40.781 1624.95 40.1272 1624.95 39.3207C1624.95 38.5142 1624.3 37.8604 1623.49 37.8604L1621 37.8604L1622.76 36.0964C1623.33 35.5261 1623.33 34.6015 1622.76 34.0312C1622.19 33.4609 1621.27 33.4609 1620.7 34.0312L1618.94 35.7941V33.3007Z" fill="url(#paint1_linear_2849_45029)"/>
<path fill-rule="evenodd" clip-rule="evenodd" d="M1625.9 0.576608C1625.9 -0.559214 1624.98 -1.47998 1623.84 -1.47998C1622.7 -1.47998 1621.78 -0.559214 1621.78 0.576608V3.75658L1619.53 1.50774C1618.73 0.704594 1617.43 0.704594 1616.63 1.50774C1615.82 2.31089 1615.82 3.61305 1616.63 4.4162L1618.87 6.66406H1615.69C1614.56 6.66406 1613.64 7.58483 1613.64 8.72065C1613.64 9.85647 1614.56 10.7772 1615.69 10.7772L1618.87 10.7772L1616.63 13.0252C1615.82 13.8284 1615.82 15.1305 1616.63 15.9337C1617.43 16.7368 1618.73 16.7368 1619.53 15.9337L1621.78 13.6847V16.8648C1621.78 18.0006 1622.7 18.9214 1623.84 18.9214C1624.98 18.9214 1625.9 18.0006 1625.9 16.8648V13.6867L1628.14 15.9337C1628.95 16.7368 1630.25 16.7368 1631.05 15.9337C1631.86 15.1305 1631.86 13.8284 1631.05 13.0252L1628.8 10.7772L1631.98 10.7772C1633.12 10.7772 1634.04 9.85647 1634.04 8.72065C1634.04 7.58483 1633.12 6.66406 1631.98 6.66406H1628.8L1631.05 4.4162C1631.85 3.61305 1631.85 2.31089 1631.05 1.50774C1630.25 0.704594 1628.95 0.704594 1628.14 1.50774L1625.9 3.75463V0.576608Z" fill="url(#paint2_linear_2849_45029)"/>
<path fill-rule="evenodd" clip-rule="evenodd" d="M1604.9 14.4373C1604.9 13.4542 1604.1 12.6572 1603.12 12.6572C1602.14 12.6572 1601.34 13.4542 1601.34 14.4373L1601.34 17.1987L1599.39 15.2465C1598.69 14.5514 1597.57 14.5514 1596.87 15.2465C1596.18 15.9417 1596.18 17.0688 1596.87 17.7639L1598.83 19.7178L1596.06 19.7178C1595.08 19.7178 1594.28 20.5147 1594.28 21.4978C1594.28 22.4809 1595.08 23.2779 1596.06 23.2779L1598.82 23.2779L1596.87 25.2316C1596.17 25.9267 1596.17 27.0538 1596.87 27.749C1597.57 28.4441 1598.69 28.4441 1599.39 27.749L1601.34 25.7956L1601.34 28.5583C1601.34 29.5414 1602.14 30.3383 1603.12 30.3383C1604.1 30.3383 1604.9 29.5414 1604.9 28.5583V25.7936L1606.86 27.749C1607.55 28.4441 1608.68 28.4441 1609.37 27.749C1610.07 27.0538 1610.07 25.9267 1609.37 25.2316L1607.42 23.2779L1610.18 23.2779C1611.16 23.2779 1611.96 22.4809 1611.96 21.4978C1611.96 20.5147 1611.16 19.7178 1610.18 19.7178L1607.42 19.7178L1609.37 17.7639C1610.07 17.0688 1610.07 15.9417 1609.37 15.2465C1608.68 14.5514 1607.55 14.5514 1606.86 15.2465L1604.9 17.2006V14.4373Z" fill="url(#paint3_linear_2849_45029)"/>
<path fill-rule="evenodd" clip-rule="evenodd" d="M297.249 37.1467C297.249 35.9606 296.288 34.9991 295.102 34.9991C293.916 34.9991 292.954 35.9606 292.954 37.1467V40.8155L290.36 38.2212C289.521 37.3825 288.161 37.3825 287.323 38.2212C286.484 39.0599 286.484 40.4196 287.323 41.2583L289.917 43.8524H286.249C285.063 43.8524 284.101 44.8139 284.101 46C284.101 47.1861 285.063 48.1476 286.249 48.1476L289.917 48.1476L287.323 50.7414C286.485 51.5801 286.485 52.9399 287.323 53.7786C288.162 54.6172 289.522 54.6172 290.36 53.7786L292.954 51.1849V54.853C292.954 56.0391 293.916 57.0006 295.102 57.0006C296.288 57.0006 297.249 56.0391 297.249 54.853V51.1849L299.843 53.7786C300.682 54.6172 302.041 54.6172 302.88 53.7786C303.719 52.9399 303.719 51.5801 302.88 50.7414L300.286 48.1476L303.955 48.1476C305.141 48.1476 306.103 47.1861 306.103 46C306.103 44.8139 305.141 43.8524 303.955 43.8524H300.287L302.881 41.2583C303.719 40.4196 303.719 39.0599 302.881 38.2212C302.042 37.3825 300.682 37.3825 299.844 38.2212L297.249 40.8155V37.1467Z" fill="url(#paint4_linear_2849_45029)"/>
<path fill-rule="evenodd" clip-rule="evenodd" d="M307.486 -10.9756C307.486 -12.6459 306.132 -14 304.461 -14C302.791 -14 301.437 -12.6459 301.437 -10.9756L301.437 -6.29863L298.129 -9.60632C296.948 -10.7874 295.033 -10.7874 293.852 -9.60632C292.671 -8.42522 292.671 -6.51028 293.852 -5.32918L297.158 -2.02344L292.485 -2.02344C290.814 -2.02344 289.46 -0.669372 289.46 1.00096C289.46 2.67128 290.814 4.02535 292.485 4.02535H297.158L293.852 7.33114C292.671 8.51224 292.671 10.4272 293.852 11.6083C295.033 12.7894 296.948 12.7894 298.129 11.6083L301.437 8.30054L301.437 12.9776C301.437 14.6479 302.791 16.002 304.461 16.002C306.132 16.002 307.486 14.6479 307.486 12.9776V8.30445L310.789 11.6083C311.971 12.7894 313.885 12.7894 315.067 11.6083C316.248 10.4272 316.248 8.51224 315.067 7.33114L311.761 4.02535H316.438C318.108 4.02535 319.462 2.67129 319.462 1.00096C319.462 -0.669369 318.108 -2.02344 316.438 -2.02344L311.761 -2.02344L315.067 -5.32918C316.248 -6.51028 316.248 -8.42522 315.067 -9.60632C313.885 -10.7874 311.971 -10.7874 310.789 -9.60632L307.486 -6.30253V-10.9756Z" fill="url(#paint5_linear_2849_45029)"/>
<path fill-rule="evenodd" clip-rule="evenodd" d="M276.618 9.4084C276.618 7.96266 275.446 6.79065 274 6.79065C272.554 6.79065 271.382 7.96266 271.382 9.4084V13.4699L268.511 10.5986C267.489 9.57629 265.831 9.57629 264.809 10.5986C263.787 11.6209 263.787 13.2783 264.809 14.3006L267.682 17.1737L263.619 17.1737C262.173 17.1737 261.001 18.3457 261.001 19.7915C261.001 21.2372 262.173 22.4092 263.619 22.4092L267.681 22.4092L264.807 25.2825C263.785 26.3048 263.785 27.9622 264.807 28.9845C265.83 30.0068 267.487 30.0068 268.509 28.9845L271.382 26.1115V30.1745C271.382 31.6203 272.554 32.7923 274 32.7923C275.446 32.7923 276.618 31.6203 276.618 30.1745V26.1096L279.493 28.9845C280.515 30.0068 282.173 30.0068 283.195 28.9845C284.217 27.9622 284.217 26.3048 283.195 25.2825L280.322 22.4092L284.385 22.4092C285.831 22.4092 287.003 21.2372 287.003 19.7915C287.003 18.3457 285.831 17.1737 284.385 17.1737L280.32 17.1737L283.193 14.3006C284.216 13.2783 284.216 11.6209 283.193 10.5986C282.171 9.57629 280.513 9.57629 279.491 10.5986L276.618 13.4719V9.4084Z" fill="url(#paint6_linear_2849_45029)"/>
</g>
<defs>
<linearGradient id="paint0_linear_2849_45029" x1="1.59489e-08" y1="-46.5" x2="1920" y2="91" gradientUnits="userSpaceOnUse">
<stop offset="0.3" stop-color="#B0E0E6"/>
<stop offset="1" stop-color="white"/>
</linearGradient>
<linearGradient id="paint1_linear_2849_45029" x1="1612.13" y1="43.7735" x2="1626.34" y2="31.7804" gradientUnits="userSpaceOnUse">
<stop stop-color="#0056D6"/>
<stop offset="1" stop-color="#ADD8FF"/>
</linearGradient>
<linearGradient id="paint2_linear_2849_45029" x1="1616.55" y1="14.7925" x2="1635.93" y2="-1.5617" gradientUnits="userSpaceOnUse">
<stop stop-color="#0056D6"/>
<stop offset="1" stop-color="#ADD8FF"/>
</linearGradient>
<linearGradient id="paint3_linear_2849_45029" x1="1596.8" y1="26.76" x2="1613.6" y2="12.5864" gradientUnits="userSpaceOnUse">
<stop stop-color="#0056D6"/>
<stop offset="1" stop-color="#ADD8FF"/>
</linearGradient>
<linearGradient id="paint4_linear_2849_45029" x1="287.242" y1="52.5479" x2="308.138" y2="34.911" gradientUnits="userSpaceOnUse">
<stop stop-color="#B9BEC6"/>
<stop offset="1" stop-color="#DAE3EC"/>
</linearGradient>
<linearGradient id="paint5_linear_2849_45029" x1="293.743" y1="9.93015" x2="322.237" y2="-14.1202" gradientUnits="userSpaceOnUse">
<stop stop-color="#B9BEC6"/>
<stop offset="1" stop-color="#DAE3EC"/>
</linearGradient>
<linearGradient id="paint6_linear_2849_45029" x1="264.713" y1="27.5301" x2="289.408" y2="6.68649" gradientUnits="userSpaceOnUse">
<stop stop-color="#B9BEC6"/>
<stop offset="1" stop-color="#DAE3EC"/>
</linearGradient>
<clipPath id="clip0_2849_45029">
<rect width="1920" height="45" fill="white"/>
</clipPath>
</defs>
</svg>
