<svg width="1920" height="45" viewBox="0 0 1920 45" fill="none" xmlns="http://www.w3.org/2000/svg">
<g clip-path="url(#clip0_2849_44999)">
<rect width="1920" height="45" fill="url(#paint0_linear_2849_44999)"/>
<g filter="url(#filter0_bi_2849_44999)">
<path fill-rule="evenodd" clip-rule="evenodd" d="M1693.05 1.27778C1693.05 1.81055 1693.03 2.33853 1692.99 2.86095C1695.21 1.02748 1698.05 -0.0740013 1701.16 -0.0740013C1708.25 -0.0740013 1714 5.67582 1714 12.7686C1714 19.6346 1708.61 25.2422 1701.83 25.5937V25.6111H1701.19C1701.18 25.6112 1701.17 25.6112 1701.16 25.6112C1701.15 25.6112 1701.13 25.6112 1701.12 25.6111H1652.49V25.5408C1646.03 24.8651 1641 19.4046 1641 12.7685C1641 6.11868 1646.05 0.649303 1652.53 -0.00787544C1653.19 -10.608 1662 -19 1672.77 -19C1683.97 -19 1693.05 -9.92133 1693.05 1.27778Z" fill="url(#paint1_linear_2849_44999)"/>
</g>
<g filter="url(#filter1_f_2849_44999)">
<ellipse cx="1633.5" cy="53.5" rx="31.5" ry="9.5" fill="#949494" fill-opacity="0.7"/>
</g>
<g filter="url(#filter2_bi_2849_44999)">
<path fill-rule="evenodd" clip-rule="evenodd" d="M1657 16C1657 16.7882 1656.97 17.5693 1656.91 18.3422C1660.19 15.6296 1664.41 14 1669 14C1679.49 14 1688 22.5066 1688 33C1688 43.158 1680.03 51.4541 1670 51.9741V52H1669H1599H1597V51.896C1587.45 50.8966 1580 42.8179 1580 33C1580 23.1618 1587.48 15.07 1597.06 14.0979C1598.04 -1.58442 1611.07 -14 1627 -14C1643.57 -14 1657 -0.568542 1657 16Z" fill="url(#paint2_linear_2849_44999)"/>
</g>
</g>
<defs>
<filter id="filter0_bi_2849_44999" x="1634" y="-26" width="86.9998" height="58.6112" filterUnits="userSpaceOnUse" color-interpolation-filters="sRGB">
<feFlood flood-opacity="0" result="BackgroundImageFix"/>
<feGaussianBlur in="BackgroundImageFix" stdDeviation="3.5"/>
<feComposite in2="SourceAlpha" operator="in" result="effect1_backgroundBlur_2849_44999"/>
<feBlend mode="normal" in="SourceGraphic" in2="effect1_backgroundBlur_2849_44999" result="shape"/>
<feColorMatrix in="SourceAlpha" type="matrix" values="0 0 0 0 0 0 0 0 0 0 0 0 0 0 0 0 0 0 127 0" result="hardAlpha"/>
<feOffset dy="2"/>
<feGaussianBlur stdDeviation="4"/>
<feComposite in2="hardAlpha" operator="arithmetic" k2="-1" k3="1"/>
<feColorMatrix type="matrix" values="0 0 0 0 1 0 0 0 0 1 0 0 0 0 1 0 0 0 0.25 0"/>
<feBlend mode="normal" in2="shape" result="effect2_innerShadow_2849_44999"/>
</filter>
<filter id="filter1_f_2849_44999" x="1580" y="22" width="107" height="63" filterUnits="userSpaceOnUse" color-interpolation-filters="sRGB">
<feFlood flood-opacity="0" result="BackgroundImageFix"/>
<feBlend mode="normal" in="SourceGraphic" in2="BackgroundImageFix" result="shape"/>
<feGaussianBlur stdDeviation="11" result="effect1_foregroundBlur_2849_44999"/>
</filter>
<filter id="filter2_bi_2849_44999" x="1573" y="-21" width="122" height="80" filterUnits="userSpaceOnUse" color-interpolation-filters="sRGB">
<feFlood flood-opacity="0" result="BackgroundImageFix"/>
<feGaussianBlur in="BackgroundImageFix" stdDeviation="3.5"/>
<feComposite in2="SourceAlpha" operator="in" result="effect1_backgroundBlur_2849_44999"/>
<feBlend mode="normal" in="SourceGraphic" in2="effect1_backgroundBlur_2849_44999" result="shape"/>
<feColorMatrix in="SourceAlpha" type="matrix" values="0 0 0 0 0 0 0 0 0 0 0 0 0 0 0 0 0 0 127 0" result="hardAlpha"/>
<feOffset dy="2"/>
<feGaussianBlur stdDeviation="4"/>
<feComposite in2="hardAlpha" operator="arithmetic" k2="-1" k3="1"/>
<feColorMatrix type="matrix" values="0 0 0 0 1 0 0 0 0 1 0 0 0 0 1 0 0 0 0.25 0"/>
<feBlend mode="normal" in2="shape" result="effect2_innerShadow_2849_44999"/>
</filter>
<linearGradient id="paint0_linear_2849_44999" x1="-1.07971e-07" y1="-46" x2="1920" y2="91" gradientUnits="userSpaceOnUse">
<stop offset="0.00123832" stop-color="white"/>
<stop offset="0.3" stop-color="#D3D3D3"/>
<stop offset="1" stop-color="#4682B4"/>
</linearGradient>
<linearGradient id="paint1_linear_2849_44999" x1="1678.85" y1="41.4955" x2="1706.23" y2="-18.9999" gradientUnits="userSpaceOnUse">
<stop stop-color="#DFDFDF"/>
<stop offset="1" stop-color="#92AABB" stop-opacity="0"/>
</linearGradient>
<linearGradient id="paint2_linear_2849_44999" x1="1636" y1="75.5" x2="1676.5" y2="-14" gradientUnits="userSpaceOnUse">
<stop stop-color="#DFDFDF"/>
<stop offset="1" stop-color="#92AABB" stop-opacity="0"/>
</linearGradient>
<clipPath id="clip0_2849_44999">
<rect width="1920" height="45" fill="white"/>
</clipPath>
</defs>
</svg>
